<svg xmlns="http://www.w3.org/2000/svg" height="800" width="1200" id="svg8063" version="1.1" xml:space="preserve" clip-rule="evenodd" fill-rule="evenodd" image-rendering="optimizeQuality" shape-rendering="geometricPrecision" text-rendering="geometricPrecision" viewBox="-156.9 -55.75 1359.8 334.5"><defs id="defs8048"><style id="style8046" type="text/css">.fil0{fill:#010101}</style></defs><g transform="translate(-6 -2)" id="Слой_x0020_1"><g id="_929688768"><path id="rect8051" class="fil0" d="M241 12h44.652v201.822H241z"/><path id="polygon8053" class="fil0" d="M699 124L667 12h-58l-32 202h44l20-145h1l39 145h37l39-145 21 145h45L790 12h-59l-31 112z"/><path id="path8055" d="M1005 214h47L972 12h-62l-80 202h44l16-41h99zM940 48l34 87h-69z" class="fil0"/><path id="path8057" d="M433 94v41h71v3c0 27-24 46-62 46s-68-21-68-70c0-51 32-70 69-70 29 0 50 5 74 17l21-34c-25-15-62-24-96-24-61 0-116 33-116 112 0 69 48 108 114 108 74 0 109-35 110-98 0-9 0-18-1-31z" class="fil0"/><path id="path8059" d="M151 96c-28-6-47-3-75-9-18-3-23-10-23-18 0-17 22-26 51-26 23 0 46 6 68 16l22-37C170 10 137 2 99 2 63 2 7 19 7 72c0 30 20 49 47 55 25 6 41 5 71 9 20 3 28 10 28 21 0 16-21 26-51 26-26 0-52-5-78-16L6 205c32 14 65 20 93 20 61 0 102-27 102-71 0-30-18-51-50-58z" class="fil0"/></g></g></svg>