<?xml version='1.0' encoding='utf-8'?>
<svg xmlns="http://www.w3.org/2000/svg" height="519" viewBox="0 0 504 290" width="902.294854"><path d="m427 57.4h77l-38.2 162h-76.9zm-98.6 0h76.9l-37.3 155.2c-9 37.6-35 77.4-88.4 77.4h-115.3l17.7-52.6h53c25 0 52.9-13.8 59-38.8l34.4-141.2zm-9.1-57.4h-79.2l-36.9 155.5c-3.6 15.1-8.6 23.8-26.6 23.8h-67.3c-15.3 0-14.9-9-11.7-22l10.4-43c2.6-10.7 6.1-15.5 20.3-15.5h66.3l9.9-41.5h-128.8c-30.5 0-48.9 14.7-56.1 45l-17.4 72.7c-7.2 30.4 4 44.4 26 44.4h188.2c39.5 0 54.8-15.4 61.7-44.7z" fill="#333" /></svg>