<?xml version='1.0' encoding='utf-8'?>
<svg xmlns="http://www.w3.org/2000/svg" t="1771148517697" class="icon" viewBox="0 0 12209 1024" version="1.1" p-id="10347" width="6187.959961" height="519"><path d="M2184.466457 105.461553h-128.296156l-268.075612 464.809585h1.187927-211.253085l-23.428568 67.975844h194.226126l-160.370196 278.106999h103.745658l160.700176-277.843015-0.395976-0.263984H2090.290215l50.684901 278.106999h192.37824L2184.466457 105.461553z m-176.275223 464.875581h-116.1529l0.395976-0.263984 141.099374-243.987085 44.415285 244.185073h-69.757735zM5902.943136 177.199167l20.722734-71.737614h-531.729494l-119.386702 377.034951 0.527968 0.197988h-118.726742l-22.636616 67.843852h118.792738l0.659959-0.131992-115.690927 365.881633h531.861486l22.504624-75.235401h-327.999948l92.262359-290.51424h213.166969l22.57062-67.843852h-214.024916l97.146061-305.561321zM6572.670194 843.824415l233.493726-738.362862h-196.074013l-256.460322 810.826432H6823.058887l23.626556-72.46357zM9042.76719 843.824415l233.625718-738.362862h-196.008017l-256.526318 810.826432H9293.551859l23.428568-72.46357zM10498.374205 105.461553h-128.164165l-268.075612 464.809585h1.187927-211.055097l-23.692552 67.975844h194.226127l-160.3042 278.106999h103.811653l160.63418-277.843015-0.32998-0.263984h237.651472l50.684902 278.106999h192.444235l-149.01889-810.892428z m-106.64948 464.875581h-185.580655l0.461971-0.263984 140.901387-243.987085 44.613272 244.185073h-0.395975zM941.762427 105.461553l-121.762556 384.756479H522.028087l121.69656-384.756479H451.412404l-121.762556 384.756479h-196.008018l-21.646677 71.605622h195.15007l-112.193141 354.464331H387.396317l112.06115-354.464331h297.905788l-112.193141 354.464331H877.746341l256.32833-810.826432zM3385.857013 470.551234c-72.46357-52.136813-115.624932-65.665986-172.24947-95.232178C3018.655461 289.194321 3211.36368 69.295764 3446.969277 225.706202l40.917499-67.975845c-380.466741-210.923106-654.679978 195.678038-385.416439 374.131129 45.273232 31.678063 108.629359 56.096571 174.559329 99.653908 160.898164 106.517488-79.393146 344.630932-333.279626 131.463963l-52.136812 67.975844c192.840211 167.629752 512.32668 108.233383 571.261077-147.302995 20.458749-88.434594-3.959758-160.568184-77.083288-213.100972zM4471.226661 470.551234c-72.595562-52.136813-115.558936-65.665986-172.24947-95.232178-194.886086-86.124735-2.309859-306.023292 233.559722-149.612854l40.719511-67.975845c-380.466741-210.923106-654.547986 195.678038-385.416438 374.131129 45.339228 31.678063 108.695355 56.096571 174.559328 99.653908 161.030156 106.517488-79.195159 344.630932-333.147633 131.463963l-52.136813 67.975844c192.708219 167.629752 512.260684 108.233383 571.195081-147.302995 20.392753-88.434594-3.959758-160.568184-77.083288-213.100972zM7979.044219 105.461553c-237.453484 0.263984-263.983862 0-263.983862 0l-125.062355 373.669156-77.743247-0.263983h-47.913071l-24.616495 73.519505h121.960544l3.76177 0.065996-96.948073 289.326313-24.946475 74.575441h361.98787c371.359298-6.731588 499.589459-343.83898 218.578638-408.911002 323.644215-98.861956 281.010821-402.311406-45.075244-401.91543z m-171.589511 739.220809h-67.975844l-69.427756-0.725955 95.562158-291.636172h114.568996c227.026121 2.375855 74.245461 289.788284-72.727554 292.362127z m84.07886-366.4096h-98.861956l95.892138-301.073595h45.207236c207.161336-4.685714 162.218083 296.585869-42.237418 301.073595zM11739.098356 105.461553h-241.413242l-264.049858 810.892428h313.150856c632.241349-22.372632 751.298071-817.888 192.312244-810.892428z m-199.90178 735.591031h-90.480468l226.168173-659.959655h64.214075c301.733554 0 158.390317 659.959655-199.90178 659.959655z" fill="#ffffff" p-id="10348" data-spm-anchor-id="a313x.search_index.0.i4.14b03a81xGn3NI" class="" /></svg>