<?xml version='1.0' encoding='utf-8'?>
<svg xmlns="http://www.w3.org/2000/svg" t="1771148684399" class="icon" viewBox="0 0 1820 1024" version="1.1" p-id="15048" width="922.441406" height="519"><path d="M1174.4 416.8h-153.6l1.6 190.4h73.6v-69.6h78.4c56.8 0 71.2-36.8 71.2-60 0-20.8-12.8-60.8-71.2-60.8z m-28 76.8l-49.6 1.6v-36.8h49.6c12.8 0 24 5.6 24 16.8 0 11.2-5.6 18.4-24 18.4zM1669.6 496c-22.4-4-55.2-11.2-67.2-12.8-16.8-3.2-22.4-8.8-22.4-16.8 0-7.2 7.2-16.8 29.6-16.8 22.4 0 34.4 7.2 38.4 18.4h80.8c-4-44-65.6-56.8-113.6-56.8-47.2 0-109.6 16-109.6 62.4 0 35.2 34.4 45.6 58.4 51.2 16.8 3.2 45.6 8.8 58.4 11.2 20 4 29.6 7.2 29.6 20s-11.2 18.4-35.2 18.4c-22.4 0-35.2-7.2-40-22.4h-84c4 51.2 71.2 62.4 124 62.4s115.2-12.8 115.2-62.4c0-28.8-18.4-47.2-62.4-56zM451.2 416.8h-80v190.4h179.2v-42.4H451.2zM1409.6 539.2c0 24-18.4 35.2-36.8 35.2-20 0-36.8-11.2-36.8-35.2V416.8h-75.2v128c0 51.2 52.8 69.6 113.6 69.6s113.6-16.8 112-69.6v-128h-76.8v122.4zM220.8 409.6C144 409.6 88 448 88 512s56 102.4 132.8 102.4c78.4 0 133.6-38.4 133.6-102.4s-56-100.8-133.6-102.4zM274.4 512c0 34.4-23.2 62.4-52.8 62.4s-52.8-28-52.8-62.4 23.2-62.4 52.8-62.4 52.8 28 52.8 62.4zM916 416.8l-1.6 4-48 108c-3.2 4-4 4-5.6 0l-49.6-108v-4h-78.4v190.4h64V510.4c0-3.2 3.2-3.2 3.2-1.6l40 93.6 1.6 4h44l1.6-4 40-93.6c1.6-3.2 4-1.6 4 1.6v96.8h64V416.8h-79.2zM645.6 422.4l-35.2 62.4c-3.2 4-3.2 4-5.6 0l-35.2-62.4-3.2-4H488l82.4 126.4v64h73.6v-64l82.4-126.4H648l-2.4 4z" fill="#ffffff" p-id="15049" /></svg>