<?xml version='1.0' encoding='utf-8'?>
<svg xmlns="http://www.w3.org/2000/svg" t="1771148468821" class="icon" viewBox="0 0 6696 1024" version="1.1" p-id="8319" width="3393.773438" height="519"><path d="M6621.935666 906.686112a349.882696 349.882696 0 0 1-191.955004 105.705218 467.875554 467.875554 0 0 1-150.050998 7.246558 352.797072 352.797072 0 0 1-183.133109-71.756672 368.156623 368.156623 0 0 1-107.280556-121.064769 343.423808 343.423808 0 0 1-41.904006-117.756558 394.070943 394.070943 0 0 1 8.900663-173.444776c36.232787-134.691447 137.842125-230.708333 275.054114-258.906894a472.128969 472.128969 0 0 1 225.037114 5.592452c54.900549 14.571882 98.45866 37.965659 140.362666 76.640221 26.623222 24.260214 45.212217 48.441661 61.28067 80.736102 19.376664 37.020456 27.489658 74.198447 25.047884 116.102452h-244.413779a119.883265 119.883265 0 0 0-47.575225-79.003229 99.561397 99.561397 0 0 0-114.60588-5.671219c-24.969116 15.359551-41.116337 36.232787-50.017 64.588882a331.608768 331.608768 0 0 0-3.150677 195.972117c8.034227 28.19856 21.739672 50.804669 42.691675 70.969003 24.181447 23.393778 54.900549 33.08211 87.982659 28.277327a83.492944 83.492944 0 0 0 51.592338-27.489658c14.493115-16.068453 23.393778-33.869779 26.623222-54.821782 2.363008-15.359551 4.017113-28.19856 4.804783-42.770442h257.331554a259.930864 259.930864 0 0 1-72.544341 200.855667zM5637.900431 0h267.019887v188.72556h-267.019887V0z m0 285.530115h267.019887v713.943439h-267.019887V285.530115z m-552.550003 75.064883c34.657448-30.719102 68.527228-52.458774 111.29767-71.835439a284.191077 284.191077 0 0 1 210.543999-15.280784c78.294327 22.606108 134.691447 78.21556 158.951662 155.643451 12.05134 37.099223 16.93489 70.181333 16.934889 109.722331v460.628997h-283.167107V584.844443c0-13.705446-1.575339-25.835552-5.671219-38.753329a77.979259 77.979259 0 0 0-45.921119-50.804669 107.280556 107.280556 0 0 0-134.691448 44.345781 117.756558 117.756558 0 0 0-17.013656 62.147107v397.694221h-274.266445V285.530115h257.331555l5.671219 75.064883z m-3156.505887 0c35.445118-30.719102 68.527228-52.458774 110.510001-71.835439a284.506145 284.506145 0 0 1 210.543999-15.280784c78.21556 22.606108 134.691447 78.21556 158.872895 155.643451 12.130107 37.099223 17.013657 70.181333 17.013656 109.722331v460.628997H2142.460451V584.844443c0-13.705446-1.575339-25.835552-5.671219-38.753329a79.948432 79.948432 0 0 0-45.999886-50.804669 107.280556 107.280556 0 0 0-134.691447 44.345781 117.756558 117.756558 0 0 0-16.93489 62.147107v397.694221h-274.266444V285.530115h257.331554l6.458889 75.064883zM3610.675996 736.47078c20.164334 3.229444 37.886893 8.112994 57.263557 14.571882a47.260157 47.260157 0 0 1 31.506771 34.657448 53.08891 53.08891 0 0 1-14.571882 49.229331 79.790898 79.790898 0 0 1-47.575225 24.181447c-25.047883 4.017113-47.575225 1.575339-71.835438-6.458889a113.896978 113.896978 0 0 1-30.640335-16.934889 77.979259 77.979259 0 0 1-24.969117-37.099223 119.962032 119.962032 0 0 1-5.671219-37.886893H3242.83444v15.280784a210.071398 210.071398 0 0 0 70.181333 154.855781c35.445118 33.08211 72.623108 54.11288 118.544228 66.951889a634.546375 634.546375 0 0 0 283.167107 17.801326 388.714791 388.714791 0 0 0 126.657221-41.195103 250.478832 250.478832 0 0 0 49.22933-33.08211 216.293985 216.293985 0 0 0 68.527228-237.088455 169.270129 169.270129 0 0 0-54.034113-81.52377c-36.232787-31.506771-72.623108-50.804669-118.622994-64.510115a304.670479 304.670479 0 0 0-28.98623-8.034226 1219.548352 1219.548352 0 0 0-161.314669-33.86978c-15.359551-2.441775-28.277327-4.88355-43.558112-8.112993-7.325324-1.575339-12.917776-4.017113-19.376664-6.458888-16.14722-7.246557-23.393778-25.835552-16.14722-41.904006 0.787669-0.787669 0.787669-1.575339 1.575338-2.441775a64.667648 64.667648 0 0 1 37.96566-30.719102 131.934605 131.934605 0 0 1 86.328553 2.441775c28.19856 9.688332 45.921119 35.523885 44.345781 65.37655h251.660336c0-30.719102-4.804783-57.263557-15.359551-86.328553a146.742788 146.742788 0 0 0-51.592338-70.969003 253.787043 253.787043 0 0 0-66.951889-38.753328 380.129196 380.129196 0 0 0-73.410777-20.164334 783.415869 783.415869 0 0 0-179.037229-10.476002c-36.311554 2.363008-66.951889 6.458888-101.609337 14.493115a311.759502 311.759502 0 0 0-124.294213 59.705332c-32.294441 25.835552-54.034113 55.688218-67.739558 94.441547-6.458888 17.722559-8.900663 33.869779-9.688333 52.380007-1.575339 31.506771 3.150677 58.129993 14.493115 87.116223a190.931034 190.931034 0 0 0 109.722331 109.722331c26.623222 10.476001 49.22933 17.722559 77.427891 23.393778 58.129993 8.900663 104.051112 17.722559 159.739331 27.410891zM486.385783 691.33733H303.331441v-233.937777h119.331897c22.606108 0 41.982773-0.787669 64.588881-1.575339 31.506771-1.654105 57.263557-15.359551 75.773785-41.195103 9.688332-13.705446 15.359551-26.623222 17.801326-43.558112 1.575339-13.705446 2.363008-25.835552 0.787669-39.540998a100.2703 100.2703 0 0 0-100.821668-91.133336H303.252674v759.076889H0V0h495.286445c20.164334 0 36.311554 0.787669 56.475888 1.575339 131.54077 7.325324 239.608996 79.869665 295.218448 199.280328 29.064997 62.147106 38.753329 121.852438 31.506771 190.379666-16.14722 143.59211-116.181219 254.88978-257.331555 286.396552a625.882013 625.882013 0 0 1-134.691448 13.705445z m3980.092889-419.51266a453.303673 453.303673 0 0 0-80.578568-6.458888c-28.277327 0-52.458774 1.575339-80.657334 6.458888a370.755932 370.755932 0 0 0-208.180992 103.263443c-63.722445 61.359437-99.24633 133.903778-107.280556 222.674106a415.889382 415.889382 0 0 0 13.705445 154.068112 354.293644 354.293644 0 0 0 130.753101 193.60911c43.479344 33.869779 87.116223 53.246444 141.150336 65.376551 37.886893 8.034227 70.969002 12.05134 110.51 12.05134 38.674562 0 71.756672-3.150677 110.510001-12.130107 54.034113-12.05134 97.592224-31.428004 141.150336-65.376551l-153.280443-166.985888c-24.181447 54.11288-87.903892 78.294327-141.938005 54.11288a104.051112 104.051112 0 0 1-54.034113-54.034113 257.567856 257.567856 0 0 1-20.164333-68.527228 409.115426 409.115426 0 0 1 3.150677-143.670877c4.88355-25.756786 13.784212-46.787555 28.277327-69.314897a104.051112 104.051112 0 0 1 144.37978-29.931433c12.917776 8.112994 21.818439 17.801326 29.931432 29.931433 14.414348 21.739672 23.315011 42.691675 28.198561 69.314897 9.609565 50.017 10.476001 93.575111 3.150677 143.59211a249.061027 249.061027 0 0 1-20.164334 68.527228l153.280443 166.985888a354.293644 354.293644 0 0 0 130.753101-193.530343c14.493115-52.458774 18.510228-99.24633 13.705445-154.068112-8.112994-88.770328-42.770442-161.314669-107.359323-222.674106-60.493001-58.051226-126.578454-90.345667-208.889894-103.184676z m-1251.842792 671.172996a2914.691417 2914.691417 0 0 1-7.325324-167.773557c-1.575339-77.427891-2.363008-142.804441-3.150678-220.232332a445.033145 445.033145 0 0 0-15.359551-117.756558 186.441319 186.441319 0 0 0-92.787441-120.198332 313.413608 313.413608 0 0 0-87.903892-33.08211c-103.263443-21.818439-193.60911-24.181447-297.738989-5.671219a355.002546 355.002546 0 0 0-80.578568 23.393778 212.907007 212.907007 0 0 0-126.657221 138.787327 174.547513 174.547513 0 0 0-7.325324 73.410778c0.787669 4.804783 1.654105 8.821896 4.09588 12.917776l240.396665 5.592452c-0.787669-15.280784 1.575339-28.19856 6.380122-42.770442a73.804612 73.804612 0 0 1 45.212216-45.13345 140.205132 140.205132 0 0 1 96.016886-1.575339c21.739672 7.246557 36.232787 22.527342 43.558111 44.345781a42.06154 42.06154 0 0 1-5.671218 37.886892 60.335467 60.335467 0 0 1-27.410891 21.818439c-7.246557 2.363008-12.917776 4.804783-20.164334 6.458889-33.08211 8.821896-62.147106 15.280784-96.016886 20.952003-26.623222 4.804783-50.017 8.821896-76.640221 13.705445-36.232787 7.246557-66.951889 15.359551-101.609338 26.623222-32.294441 10.476001-58.051226 24.969116-82.31144 48.362894-32.294441 29.931433-50.804669 64.588881-57.263557 108.146992a221.335069 221.335069 0 0 0 3.229444 83.09911c16.93489 74.198447 68.527228 129.807898 141.938005 150.838668 81.523771 23.393778 157.376323 19.376664 236.379552-12.130107a224.485746 224.485746 0 0 0 93.575111-68.527228l-16.934889-122.640107c-12.130107 18.510228-27.410891 31.506771-47.575225 40.328667-19.376664 8.034227-36.311554 12.917776-57.263557 15.280784-17.801326 1.654105-32.294441 0-49.22933-3.938346a76.16762 76.16762 0 0 1-33.869779-20.243101 62.383407 62.383407 0 0 1-15.359552-29.852666 48.677962 48.677962 0 0 1 16.147221-47.575225c9.688332-8.034227 18.588995-13.705446 29.931433-17.722558 28.19856-10.476001 51.592338-17.722559 79.790898-25.835553 34.657448-9.688332 62.934776-20.164334 96.016886-35.445118 3.150677 25.756786 3.150677 48.362894-0.78767 74.198447-2.441775 19.297897-8.112994 34.657448-18.588995 50.804669l16.93489 122.640107c5.671219 17.722559 9.688332 32.294441 16.14722 49.150563 3.150677 9.688332 8.034227 16.93489 14.493115 24.181447h264.656879a100.191533 100.191533 0 0 1-19.376664-54.821782z m-1602.119323 0a2921.78044 2921.78044 0 0 1-7.246557-167.773557c-1.575339-77.427891-2.363008-142.804441-3.150677-220.232332 0-41.982773-4.88355-77.427891-15.359551-117.756558a186.441319 186.441319 0 0 0-92.787442-120.198332 313.177307 313.177307 0 0 0-87.903892-33.08211c-103.263443-21.818439-193.60911-24.181447-297.738989-5.671219a354.923779 354.923779 0 0 0-80.657335 23.393778 212.985774 212.985774 0 0 0-126.578454 138.787327 162.023572 162.023572 0 0 0-6.458888 73.410778c0.787669 4.804783 1.575339 8.821896 3.938347 12.917776l240.475432 5.592452a110.2737 110.2737 0 0 1 6.458888-42.770442 73.804612 73.804612 0 0 1 45.13345-45.13345 140.205132 140.205132 0 0 1 96.016886-1.575339 65.061483 65.061483 0 0 1 43.558111 44.345781 42.06154 42.06154 0 0 1-5.671219 37.886892 60.335467 60.335467 0 0 1-27.410891 21.818439c-7.246557 2.363008-12.917776 4.804783-20.952003 6.458889-33.08211 8.821896-62.147106 15.280784-96.016886 20.952003-26.623222 4.804783-50.017 8.821896-76.640221 13.705445-36.232787 7.246557-66.951889 15.359551-101.609337 26.623222a207.944691 207.944691 0 0 0-82.31144 48.362894c-32.294441 29.931433-50.804669 64.588881-57.263557 108.146992a221.335069 221.335069 0 0 0 3.150677 83.09911c17.013657 74.198447 68.605995 129.807898 142.016772 150.838668 81.523771 23.393778 157.297556 19.376664 236.379552-12.130107 37.886893-15.280784 66.951889-36.232787 93.57511-68.527228l-16.934889-122.640107c-12.130107 18.510228-27.410891 31.506771-47.575225 40.328667-19.376664 8.034227-36.311554 12.917776-57.263557 15.280784-17.801326 1.654105-32.294441 0-49.22933-3.938346a76.246387 76.246387 0 0 1-33.869779-20.243101 62.30464 62.30464 0 0 1-15.359551-29.852666 48.677962 48.677962 0 0 1 16.14722-47.575225c9.688332-8.034227 18.588995-13.705446 29.852666-17.722558 28.19856-10.476001 51.592338-17.722559 79.869665-25.835553 34.657448-9.688332 62.934776-20.164334 95.938119-35.445118 3.229444 25.756786 3.229444 48.362894-0.787669 74.198447-2.363008 19.297897-8.034227 34.657448-18.510228 50.804669l16.934889 122.640107c4.804783 17.722559 9.688332 32.294441 16.14722 49.150563a66.794355 66.794355 0 0 0 14.493115 24.181447h264.65688a100.191533 100.191533 0 0 1-19.455432-54.821782z" fill="#ffffff" p-id="8320" data-spm-anchor-id="a313x.search_index.0.i1.14b03a81xGn3NI" class="" /></svg>