<?xml version='1.0' encoding='utf-8'?>
<svg xmlns="http://www.w3.org/2000/svg" t="1770967574182" class="icon" viewBox="0 0 5512 1024" version="1.1" p-id="4992" width="2793.679688" height="519"><path d="M971.02647603 112.60635635v36.70596679a20.02143575 20.02143575 0 0 1-18.68667485 18.68667489c-9.3433362 0-9.3433362-4.6716681-28.03001108-14.01500433a1201.28620542 1201.28620542 0 0 0-125.46767057-50.72097356 767.48840818 767.48840818 0 0 0-236.25295394-28.03001104 978.38087533 978.38087533 0 0 0-278.29796929 46.04930297A467.16685683 467.16685683 0 0 0 135.46518276 209.37663539 174.18650033 174.18650033 0 0 0 80.07254113 332.84216212a235.58557347 235.58557347 0 0 0 51.38835397 162.84101786 280.96749602 280.96749602 0 0 0 189.53626801 96.77027661c106.78099571 18.68667488 274.29368411 37.37334973 431.79565094 55.39264163s171.51697358 66.7381217 171.51697605 97.43765955a83.42265275 83.42265275 0 0 1-50.72097357 78.08360418 357.71633685 357.71633685 0 0 1-194.87531654 46.71668593 867.59559197 867.59559197 0 0 1-292.31297856-46.71668593 341.03180581 341.03180581 0 0 1-133.47624334-92.098611 133.47624588 133.47624588 0 0 1-32.03429875-92.09860844H108.10255217v323.01251385h120.12861954v-41.37763736c0-9.3433362 4.6716681-23.35834293 18.68667484-23.35834299s18.68667488 9.3433362 37.37334975 18.68667486a1300.72600629 1300.72600629 0 0 0 157.50196682 50.72097362 1123.86998165 1123.86998165 0 0 0 200.21436759 23.35834294 951.01824475 951.01824475 0 0 0 301.6563147-46.71668595c92.76599141-36.70596681 204.21865522-106.11361525 204.21865524-200.21436755s0-161.50625693-92.76599143-230.91390291A515.88568658 515.88568658 0 0 0 814.19188718 426.27553151a2301.79784411 2301.79784411 0 0 0-278.29796928-32.03429869 854.24796813 854.24796813 0 0 1-200.21436757-32.70167917c-28.03001106-13.34762387-42.04501781-28.69739151-42.04501781-55.39264168s18.68667488-41.37763494 41.3776349-60.06430974a351.04252492 351.04252492 0 0 1 200.21436757-50.72097362 1063.80567188 1063.80567188 0 0 1 227.57699816 18.68667489c78.75098466 14.01500678 217.56627905 92.09860848 217.56627908 175.52126121h111.4526638V112.60635635z m1052.46019188 800.85747025c-357.71633685 0-648.02716909-204.21865522-648.02717158-457.1561402S1665.77033105-0.84845129 2023.48666791-0.84845129s648.02716909 204.88603567 648.02716911 457.15613769-290.31083223 457.15613774-648.02716911 457.1561402z m0-117.45909523a353.71204918 353.71204918 0 0 0 369.72919732-333.69061349 353.71204918 353.71204918 0 0 0-369.72919732-333.69061094 353.71204918 353.71204918 0 0 0-369.72919979 333.69061094 353.71204918 353.71204918 0 0 0 369.72919979 333.69061349zM2749.59743873 75.2330091V179.3444805h112.1200467a46.04930549 46.04930549 0 0 1 37.37334728 18.68667237 90.09646469 90.09646469 0 0 1 8.67595575 51.38835407v503.87282612c0 28.69739151-4.6716681 38.04073017-13.34762387 47.38406639s-14.01500678 9.3433362-32.70167916 9.34333618h-104.77885188v103.44409097h475.17543214v-103.44409097h-130.13933868c-14.01500678 0-14.01500678 0-23.35834298-9.34333618a71.40979227 71.40979227 0 0 1-9.34333864-47.38406639V324.83358687l657.37050778 588.63023973h167.51268591Q3884.14552243 244.74783884 3884.14552243 226.06116398c0-18.68667488 0-23.35834293 9.34333619-32.70167917a46.04930549 46.04930549 0 0 1 32.7016792-14.01500431h116.12433435V75.2330091h-483.85138789V179.3444805H3683.93115486a38.04073017 38.04073017 0 0 1 28.03001109 14.01500431 44.71454211 44.71454211 0 0 1 14.0150043 32.70167917V599.79465139l-567.94142109-524.56164229z m1372.13579853 0V179.3444805h118.79385865a47.38406638 47.38406638 0 0 1 28.69739153 9.34333621s128.80457533 138.14791395 376.40301171 405.10040325v200.21436757a22.02357959 22.02357959 0 0 1-24.0257234 18.68667488H4484.78862267v100.77456419h581.28904738v-103.44409097h-141.48481871c-9.3433362 0-24.02572339-4.6716681-24.02572588-18.68667241v-200.21436755q343.03394963-391.08539646 352.37728829-400.42873515a40.04287403 40.04287403 0 0 1 28.69739155-14.01500676h133.47624586V75.2330091H4938.60785563V179.3444805H5018.69360367c14.01500678 0 18.68667488 23.35834293 4.67166809 37.37334728S4946.61643093 304.8121486 4818.47923609 452.30340126q-180.19293179-220.90318628-194.20793606-235.58557348c-14.01500678-14.01500678-14.01500678-37.37334973 0-37.37334728h76.08145786V75.2330091z" fill="#ffffff" p-id="4993" data-spm-anchor-id="a313x.search_index.0.i3.1c753a819Il0zO" class="" /></svg>